<?xml version="1.0" encoding="UTF-8"?>
<!--
Font Awesome Pro 5.13.0 by @fontawesome - https://fontawesome.com
License - https://fontawesome.com/license (Commercial License)
-->
<svg xmlns="http://www.w3.org/2000/svg" style="display: none;">
  <symbol id="album-collection" viewBox="0 0 512 512">
    <path d="M496 80a16 16 0 0 0-16-16H32a16 16 0 0 0-16 16v16h480zm-16-64a16 16 0 0 0-16-16H48a16 16 0 0 0-16 16v16h448zm0 112H32C13.19 128-1.57 145.62.13 166.07l26.18 314.18c1.5 18 15.32 31.75 31.87 31.75h395.64c16.55 0 30.37-13.77 31.86-31.75l26.19-314.18C513.57 145.62 498.82 128 480 128zm-26.21 349.6c-.12 1.47-.69 2.31-.2 2.4l-394.32.27a4 4 0 0 1-1.07-2.68L32 163.41c-.18-2.09.67-3.32.12-3.41h447a5 5 0 0 1 .82 3.41zM256 299.15c-14.55 0-26.25 10.16-26.13 22.6S241.69 344 256 344s26-9.9 26.14-22.23-11.58-22.62-26.14-22.62zM256 192c-92.9 0-164.33 61.88-159.79 134.4C100.51 395 172 448 256 448s155.5-53 159.8-121.6C420.33 253.88 348.9 192 256 192zm0 224c-67.34 0-124.7-41.09-127.86-91.6-1.69-27 11.71-47.29 23.25-59.58C175.77 238.88 213.9 224 256 224s80.23 14.88 104.6 40.82c11.54 12.29 24.95 32.6 23.26 59.58C380.7 374.91 323.34 416 256 416z"></path>
  </symbol>
  <symbol id="ellipsis-h" viewBox="0 0 320 512">
    <path d="M192 256c0 17.7-14.3 32-32 32s-32-14.3-32-32 14.3-32 32-32 32 14.3 32 32zm88-32c-17.7 0-32 14.3-32 32s14.3 32 32 32 32-14.3 32-32-14.3-32-32-32zm-240 0c-17.7 0-32 14.3-32 32s14.3 32 32 32 32-14.3 32-32-14.3-32-32-32z"></path>
  </symbol>
  <symbol id="home-alt" viewBox="0 0 576 512">
    <path d="M541 229.16l-232.85-190a32.16 32.16 0 0 0-40.38 0L35 229.16a8 8 0 0 0-1.16 11.24l10.1 12.41a8 8 0 0 0 11.2 1.19L96 220.62v243a16 16 0 0 0 16 16h128a16 16 0 0 0 16-16v-128l64 .3V464a16 16 0 0 0 16 16l128-.33a16 16 0 0 0 16-16V220.62L520.86 254a8 8 0 0 0 11.25-1.16l10.1-12.41a8 8 0 0 0-1.21-11.27zm-93.11 218.59h.1l-96 .3V319.88a16.05 16.05 0 0 0-15.95-16l-96-.27a16 16 0 0 0-16.05 16v128.14H128V194.51L288 63.94l160 130.57z"></path>
  </symbol>
  <symbol id="search" viewBox="0 0 512 512">
    <path d="M508.5 481.6l-129-129c-2.3-2.3-5.3-3.5-8.5-3.5h-10.3C395 312 416 262.5 416 208 416 93.1 322.9 0 208 0S0 93.1 0 208s93.1 208 208 208c54.5 0 104-21 141.1-55.2V371c0 3.2 1.3 6.2 3.5 8.5l129 129c4.7 4.7 12.3 4.7 17 0l9.9-9.9c4.7-4.7 4.7-12.3 0-17zM208 384c-97.3 0-176-78.7-176-176S110.7 32 208 32s176 78.7 176 176-78.7 176-176 176z"></path>
  </symbol>
  <symbol id="user-circle" viewBox="0 0 496 512">
    <path d="M248 8C111 8 0 119 0 256s111 248 248 248 248-111 248-248S385 8 248 8zm128 421.6c-35.9 26.5-80.1 42.4-128 42.4s-92.1-15.9-128-42.4V416c0-35.3 28.7-64 64-64 11.1 0 27.5 11.4 64 11.4 36.6 0 52.8-11.4 64-11.4 35.3 0 64 28.7 64 64v13.6zm30.6-27.5c-6.8-46.4-46.3-82.1-94.6-82.1-20.5 0-30.4 11.4-64 11.4S204.6 320 184 320c-48.3 0-87.8 35.7-94.6 82.1C53.9 363.6 32 312.4 32 256c0-119.1 96.9-216 216-216s216 96.9 216 216c0 56.4-21.9 107.6-57.4 146.1zM248 120c-48.6 0-88 39.4-88 88s39.4 88 88 88 88-39.4 88-88-39.4-88-88-88zm0 144c-30.9 0-56-25.1-56-56s25.1-56 56-56 56 25.1 56 56-25.1 56-56 56z"></path>
  </symbol>
</svg>
